<svg width="76" height="69" viewBox="0 0 76 69" fill="none" xmlns="http://www.w3.org/2000/svg">
<path d="M33.1402 0H64.6402C70.4392 0 75.1402 4.70101 75.1402 10.5V57.75C75.1402 63.549 70.4392 68.25 64.6402 68.25H33.1402C27.3412 68.25 22.6402 63.549 22.6402 57.75V10.5C22.6402 4.70101 27.3412 0 33.1402 0Z" fill="#FA3939"/>
<path d="M0.776481 32.2612L11.2765 21.7612C11.7708 21.267 12.4412 20.9893 13.1402 20.9893C13.8393 20.9893 14.5097 21.267 15.004 21.7612C15.4983 22.2555 15.776 22.926 15.776 23.625C15.776 24.324 15.4983 24.9945 15.004 25.4887L8.96648 31.5H52.5152C53.2114 31.5 53.8791 31.7766 54.3714 32.2688C54.8637 32.7611 55.1402 33.4288 55.1402 34.125C55.1402 34.8212 54.8637 35.4889 54.3714 35.9812C53.8791 36.4734 53.2114 36.75 52.5152 36.75H8.96648L15.004 42.7612C15.25 43.0053 15.4453 43.2956 15.5786 43.6155C15.7118 43.9354 15.7804 44.2785 15.7804 44.625C15.7804 44.9715 15.7118 45.3146 15.5786 45.6345C15.4453 45.9544 15.25 46.2447 15.004 46.4887C14.7599 46.7348 14.4696 46.9301 14.1497 47.0633C13.8299 47.1966 13.4868 47.2652 13.1402 47.2652C12.7937 47.2652 12.4506 47.1966 12.1307 47.0633C11.8108 46.9301 11.5205 46.7348 11.2765 46.4887L0.776481 35.9887C0.530444 35.7447 0.335154 35.4544 0.201886 35.1345C0.0686186 34.8146 7.62939e-06 34.4715 7.62939e-06 34.125C7.62939e-06 33.7785 0.0686186 33.4354 0.201886 33.1155C0.335154 32.7956 0.530444 32.5053 0.776481 32.2612Z" fill="#303030"/>
</svg>
