<?xml version="1.0" encoding="utf-8"?><!-- Uploaded to: SVG Repo, www.svgrepo.com, Generator: SVG Repo Mixer Tools -->
<svg width="800px" height="800px" viewBox="0 0 1024 1024" xmlns="http://www.w3.org/2000/svg"><path fill="#000000" d="M128 384h768v-64a64 64 0 0 0-64-64H192a64 64 0 0 0-64 64v64zm0 64v320a64 64 0 0 0 64 64h640a64 64 0 0 0 64-64V448H128zm64-256h640a128 128 0 0 1 128 128v448a128 128 0 0 1-128 128H192A128 128 0 0 1 64 768V320a128 128 0 0 1 128-128z"/><path fill="#000000" d="M384 128v64h256v-64H384zm0-64h256a64 64 0 0 1 64 64v64a64 64 0 0 1-64 64H384a64 64 0 0 1-64-64v-64a64 64 0 0 1 64-64z"/></svg>