<svg width="74" height="69" viewBox="0 0 74 69" fill="none" xmlns="http://www.w3.org/2000/svg">
<path d="M63 0H31.5C25.701 0 21 4.70101 21 10.5V57.75C21 63.549 25.701 68.25 31.5 68.25H63C68.799 68.25 73.5 63.549 73.5 57.75V10.5C73.5 4.70101 68.799 0 63 0Z" fill="#08F503"/>
<path d="M54.3637 32.2612L43.8637 21.7612C43.3695 21.267 42.699 20.9893 42 20.9893C41.301 20.9893 40.6305 21.267 40.1363 21.7612C39.642 22.2555 39.3643 22.926 39.3643 23.625C39.3643 24.324 39.642 24.9945 40.1363 25.4887L46.1738 31.5H2.625C1.92881 31.5 1.26113 31.7766 0.768845 32.2688C0.276562 32.7611 0 33.4288 0 34.125C0 34.8212 0.276562 35.4889 0.768845 35.9812C1.26113 36.4734 1.92881 36.75 2.625 36.75H46.1738L40.1363 42.7612C39.8902 43.0053 39.6949 43.2956 39.5617 43.6155C39.4284 43.9354 39.3598 44.2785 39.3598 44.625C39.3598 44.9715 39.4284 45.3146 39.5617 45.6345C39.6949 45.9544 39.8902 46.2447 40.1363 46.4887C40.3803 46.7348 40.6706 46.9301 40.9905 47.0633C41.3104 47.1966 41.6535 47.2652 42 47.2652C42.3465 47.2652 42.6896 47.1966 43.0095 47.0633C43.3294 46.9301 43.6197 46.7348 43.8637 46.4887L54.3637 35.9887C54.6098 35.7447 54.8051 35.4544 54.9383 35.1345C55.0716 34.8146 55.1402 34.4715 55.1402 34.125C55.1402 33.7785 55.0716 33.4354 54.9383 33.1155C54.8051 32.7956 54.6098 32.5053 54.3637 32.2612Z" fill="#303030"/>
</svg>
