<svg width="58" height="54" viewBox="0 0 58 54" fill="none" xmlns="http://www.w3.org/2000/svg">
<path d="M4.125 20.625H53.625V16.5C53.625 15.406 53.1904 14.3568 52.4168 13.5832C51.6432 12.8096 50.594 12.375 49.5 12.375H8.25C7.15598 12.375 6.10677 12.8096 5.33318 13.5832C4.5596 14.3568 4.125 15.406 4.125 16.5V20.625ZM4.125 24.75V45.375C4.125 46.469 4.5596 47.5182 5.33318 48.2918C6.10677 49.0654 7.15598 49.5 8.25 49.5H49.5C50.594 49.5 51.6432 49.0654 52.4168 48.2918C53.1904 47.5182 53.625 46.469 53.625 45.375V24.75H4.125ZM8.25 8.25H49.5C51.688 8.25 53.7865 9.11919 55.3336 10.6664C56.8808 12.2135 57.75 14.312 57.75 16.5V45.375C57.75 47.563 56.8808 49.6615 55.3336 51.2086C53.7865 52.7558 51.688 53.625 49.5 53.625H8.25C6.06196 53.625 3.96354 52.7558 2.41637 51.2086C0.869194 49.6615 0 47.563 0 45.375V16.5C0 14.312 0.869194 12.2135 2.41637 10.6664C3.96354 9.11919 6.06196 8.25 8.25 8.25Z" fill="#303030"/>
<path d="M20.625 4.125V8.25H37.125V4.125H20.625ZM20.625 0H37.125C38.219 0 39.2682 0.434597 40.0418 1.20818C40.8154 1.98177 41.25 3.03098 41.25 4.125V8.25C41.25 9.34402 40.8154 10.3932 40.0418 11.1668C39.2682 11.9404 38.219 12.375 37.125 12.375H20.625C19.531 12.375 18.4818 11.9404 17.7082 11.1668C16.9346 10.3932 16.5 9.34402 16.5 8.25V4.125C16.5 3.03098 16.9346 1.98177 17.7082 1.20818C18.4818 0.434597 19.531 0 20.625 0Z" fill="#303030"/>
</svg>
